<?xml version="1.0" encoding="utf-8"?>
<!-- Generator: Adobe Illustrator 19.0.0, SVG Export Plug-In . SVG Version: 6.00 Build 0)  -->
<svg version="1.1" id="Layer_1" xmlns="http://www.w3.org/2000/svg" xmlns:xlink="http://www.w3.org/1999/xlink" x="0px" y="0px"
	 viewBox="-255 347 100 100" style="enable-background:new -255 347 100 100;" xml:space="preserve">
<style type="text/css">
	.st0{display:none;}
	.st1{fill:#006A70;}
</style>
<g id="Layer_1_1_" class="st0">
	
		<image style="display:inline;overflow:visible;enable-background:new    ;" width="311" height="345" id="XMLID_1_" xlink:href="../../../../Downloads/Screenshot 2023-01-08 184659.jpg"  transform="matrix(1.5869 0 0 1.5869 -747.514 1076.771)">
	</image>
</g>
<rect x="-245.9" y="370.1" class="st1" width="28.6" height="2.3"/>
<rect x="-192.3" y="369.9" class="st1" width="28.6" height="2.3"/>
<polygon class="st1" points="-183.9,361.4 -183.9,353.2 -186,353.2 -186,361.4 -191.1,361.4 -184.8,367.5 -178.7,361.4 "/>
<g>
	<path class="st1" d="M-237.4,353.4h-2.1v7.4h-7.2l8.2,7.9l7.9-7.9h-6.8V353.4z M-238.6,366.6l-4.4-4.3h8.7L-238.6,366.6z"/>
	<path class="st1" d="M-216.7,359.5l-8.2-7.9l-7.9,7.9h7v7.4h2.1v-7.4H-216.7z M-224.8,353.7l4.4,4.3h-8.7L-224.8,353.7z"/>
</g>
<polygon class="st1" points="-171.3,352.5 -177.4,358.6 -172.3,358.6 -172.3,366.8 -170.1,366.8 -170.1,358.6 -165,358.6 "/>
<polygon class="st1" points="-199.5,388.7 -200.3,387.3 -204,389.5 -204,385.1 -205.6,385.1 -205.6,389.7 -209.6,387.2 
	-210.4,388.6 -206.5,391 -210.4,393.3 -209.6,394.7 -205.6,392.3 -205.6,396.9 -204,396.9 -204,392.5 -200.4,394.7 -199.5,393.3 
	-203.4,391 "/>
<polygon class="st1" points="-199.5,402.7 -200.3,401.3 -204,403.5 -204,399.1 -205.6,399.1 -205.6,403.6 -209.6,401.2 
	-210.4,402.6 -206.5,405 -210.4,407.3 -209.6,408.7 -205.6,406.3 -205.6,410.8 -204,410.8 -204,406.5 -200.4,408.7 -199.5,407.3 
	-203.4,405 "/>
<path class="st1" d="M-227.2,401.3h-1.6h-3.8v-16.2h-1.9v16.2v2.9v6.3l-6.1-6.3l-1.3,1.3l7.5,7.7v3.8h4h3.3h8v-1.3v-0.6v-12v-0.9
	v-0.9H-227.2z M-221.1,415.2h-6.1v-12h6.1V415.2z"/>
<path class="st1" d="M-188.7,401.3v0.9v0.9v12v0.6v1.3h8h3.3h4v-3.8l7.5-7.7l-1.3-1.3l-6.1,6.3v-6.3v-2.9v-16.2h-1.9v16.2h-3.8h-1.6
	H-188.7z M-186.9,403.2h6.1v12h-6.1V403.2z"/>
<path class="st1" d="M-205,436.9c-5.9,0-7.7-6-7.7-6.1l1.5-0.4c0.1,0.2,1.6,5,6.3,5c4.8,0,6.5-4.8,6.6-5.1l1.4,0.5
	C-196.9,430.9-199.1,436.9-205,436.9z"/>
<path class="st1" d="M-205,442.4c-5.9,0-7.7-6-7.7-6.1l1.5-0.4c0.1,0.2,1.6,5,6.3,5c4.8,0,6.5-4.8,6.6-5.1l1.4,0.5
	C-196.9,436.4-199.1,442.4-205,442.4z"/>
</svg>
