<?xml version="1.0" encoding="utf-8"?>
<!-- Generator: Adobe Illustrator 19.0.0, SVG Export Plug-In . SVG Version: 6.00 Build 0)  -->
<svg version="1.1" id="Layer_1" xmlns="http://www.w3.org/2000/svg" xmlns:xlink="http://www.w3.org/1999/xlink" x="0px" y="0px"
	 viewBox="-255 347 100 100" style="enable-background:new -255 347 100 100;" xml:space="preserve">
<style type="text/css">
	.st0{display:none;}
	.st1{fill:#006A70;}
</style>
<g id="Layer_1_1_" class="st0">
	
		<image style="display:inline;overflow:visible;enable-background:new    ;" width="311" height="345" id="XMLID_1_" xlink:href="../../../../Downloads/Screenshot 2023-01-08 184659.jpg"  transform="matrix(1.5869 0 0 1.5869 -747.514 1076.771)">
	</image>
</g>
<path class="st1" d="M-229.1,358l4.3-4.3l4.4,4.3H-229.1z M-243,362.3l4.4,4.3l4.3-4.3H-243z M-227.2,415.2h6.1v-12h-6.1V415.2z
	 M-186.9,415.2h6.1v-12h-6.1V415.2z M-155,354.3v85.5c0,4-3.2,7.3-7.3,7.3h-85.5c-4,0-7.3-3.2-7.3-7.3v-85.5c0-4,3.2-7.3,7.3-7.3
	h85.5C-158.2,347-155,350.2-155,354.3z M-177.4,358.6h5.1v8.2h2.1v-8.2h5.1l-6.3-6.1L-177.4,358.6z M-191.1,361.4l6.3,6.1l6.1-6.1
	h-5.1v-8.2h-2.1v8.2H-191.1z M-206.5,391l-3.9,2.3l0.8,1.4l4-2.4v4.5h1.6v-4.3l3.6,2.2l0.8-1.4l-3.8-2.3l3.9-2.3l-0.8-1.4l-3.7,2.2
	v-4.4h-1.6v4.6l-4-2.4l-0.8,1.4L-206.5,391z M-210.4,407.3l0.8,1.4l4-2.4v4.5h1.6v-4.3l3.6,2.2l0.8-1.4l-3.8-2.3l3.9-2.3l-0.8-1.4
	l-3.7,2.2v-4.4h-1.6v4.6l-4-2.4l-0.8,1.4l3.9,2.4L-210.4,407.3z M-246.7,360.8l8.2,7.9l7.9-7.9h-6.8v-7.4h-2.1v7.4H-246.7z
	 M-219.3,401.3h-8h-1.6h-3.8v-16.2h-1.9v16.2v2.9v6.3l-6.1-6.3l-1.3,1.3l7.5,7.7v3.8h4h3.3h8v-1.3v-0.6v-12v-0.9V401.3z
	 M-217.3,370.1h-28.6v2.3h28.6V370.1z M-216.7,359.5l-8.2-7.9l-7.9,7.9h7v7.4h2.1v-7.4H-216.7z M-196.9,436.4l-1.4-0.5
	c-0.1,0.2-1.8,5.1-6.6,5.1c-4.7,0-6.2-4.8-6.3-5l-1.5,0.4c0,0.1,1.9,6.1,7.7,6.1C-199.1,442.4-196.9,436.4-196.9,436.4z
	 M-196.9,430.8l-1.4-0.5c-0.1,0.2-1.8,5.1-6.6,5.1c-4.7,0-6.2-4.8-6.3-5l-1.5,0.4c0,0.1,1.9,6.1,7.7,6.1
	C-199.1,436.9-196.9,430.9-196.9,430.8z M-166.1,405.5l-1.3-1.3l-6.1,6.3v-6.3v-2.9v-16.2h-1.9v16.2h-3.8h-1.6h-8v0.9v0.9v12v0.6
	v1.3h8h3.3h4v-3.8L-166.1,405.5z M-163.7,369.9h-28.6v2.3h28.6V369.9z"/>
</svg>
