<?xml version="1.0" encoding="utf-8"?>
<!-- Generator: Adobe Illustrator 19.0.0, SVG Export Plug-In . SVG Version: 6.00 Build 0)  -->
<svg version="1.1" id="Layer_1" xmlns="http://www.w3.org/2000/svg" xmlns:xlink="http://www.w3.org/1999/xlink" x="0px" y="0px"
	 viewBox="-255 347 100 100" style="enable-background:new -255 347 100 100;" xml:space="preserve">
<style type="text/css">
	.st0{display:none;}
	.st1{fill:#006A70;}
</style>
<g id="Layer_1_1_" class="st0">
	
		<image style="display:inline;overflow:visible;enable-background:new    ;" width="311" height="345" id="XMLID_1_" xlink:href="../../../../Downloads/Screenshot 2023-01-08 184659.jpg"  transform="matrix(1.5869 0 0 1.5869 -747.514 1076.771)">
	</image>
</g>
<rect x="-499.4" y="709.2" class="st1" width="2.8" height="20.5"/>
<rect x="-474.9" y="709.2" class="st1" width="2.8" height="20.5"/>
<path class="st1" d="M-484.6,728.4c-4.6,0-9.3-3.4-9.3-9.2c0-5.7,5.5-8.6,8.5-8.6c3.2,0,6.6,2,6.6,5.7c0,4.3-2.1,6.8-5.7,6.8
	c-1.4,0-2.5-0.4-3.2-1.1c-1-1-1-2.4-0.9-2.9V719c0-1.5,0.8-3.3,4.7-3.3v2.1c-1.7,0-2.2,0.4-2.4,0.6c-0.2,0.2-0.2,0.3-0.2,0.6
	c0,0,0,0.1,0,0.2c0,0.3,0,1,0.3,1.4c0.4,0.4,1.1,0.5,1.7,0.5c2.4,0,3.6-1.6,3.6-4.7c0-2.6-2.7-3.5-4.4-3.5c-1.8,0-6.4,2-6.4,6.5
	c0,4.4,3.7,7,7.2,7s5.8-2.3,5.8-2.4l1.5,1.5C-477.4,725.5-480.2,728.4-484.6,728.4z"/>
<path class="st1" d="M-428.6,743.2l-14.1-14.1v-7.7h8.4l13.7,13.7L-428.6,743.2z M-440.5,728.2l12,12l5-5l-11.6-11.6h-5.4V728.2z"/>
<path class="st1" d="M-425.1,728.3l-1.6-1.5l2.5-2.7c0.1-0.2,0.3-0.9-0.1-1.4c-0.3-0.3-0.7-0.4-1.1-0.3c-0.5,0.1-1.3,0.5-2.5,1.6
	l-1.5-1.5c1.3-1.3,2.4-2,3.6-2.2c1.2-0.2,2.2,0.1,3.1,0.9c1.3,1.3,0.9,3.1,0.4,4l-0.1,0.1L-425.1,728.3z"/>
<path class="st1" d="M-437.1,720.1l-2.4-8.2c-0.2-0.2-0.6-0.6-1.2-0.4c-0.5,0.2-0.7,0.4-0.8,0.6c-0.1,0.3-0.2,1,0.6,2.5l-1.9,0.9
	c-0.9-1.8-1-3.2-0.6-4.2c0.3-0.8,1-1.4,2-1.8c1.9-0.7,3.3,0.6,3.8,1.4l0.1,0.1l2.7,9.1H-437.1z"/>
<path class="st1" d="M-449.9,722.4c-2-2-3-3.8-3-5.3c0-0.8,0.4-1.6,1-2.1c1.7-1.5,3.5-0.6,4.2,0l5.1,4.9l-1.3,0.1l-0.2,1.3l-5.1-4.8
	c-0.3-0.2-0.8-0.5-1.4,0c-0.2,0.2-0.3,0.3-0.3,0.6c0,0.8,0.8,2.2,2.3,3.7L-449.9,722.4z"/>
<path class="st1" d="M-451.1,731.9c-2.2-0.4-3.5-1.1-4.2-2.1c-0.6-1-0.5-2-0.3-2.9c0.2-1,0.8-1.5,1.2-1.8c1-0.6,2.1-0.4,2.4-0.3
	l7.8,1.6v2.1l-8.3-1.6c-0.1,0-0.5-0.1-0.8,0.1c0,0-0.2,0.1-0.2,0.4c-0.2,0.8-0.1,1.1,0,1.2c0.2,0.3,0.8,0.7,2.8,1.1L-451.1,731.9z"
	/>
<path class="st1" d="M-443.5,739.4c-2.1-0.5-3.9-0.9-4.6-2.3c-0.4-0.7-0.4-1.5-0.1-2.5c0.4-1.1,1-1.8,1.8-2.1c0.8-0.3,1.5-0.1,1.9,0
	l3.8,0.7l2.6,2.6l-7-1.2l-0.1-0.1c0,0-0.2-0.1-0.3,0c-0.2,0.1-0.4,0.4-0.6,0.9c-0.1,0.2-0.2,0.5-0.1,0.7c0.3,0.5,1.8,0.9,3.2,1.2
	l-0.2,1L-443.5,739.4z"/>
<path class="st1" d="M-483.7,764.3c-8,0-9.6-6.9-9.6-7l2.1-0.4l-1,0.2l1-0.2c0,0.2,1.2,5.3,7.5,5.3c6.3,0,7.6-5.3,7.7-5.3l2.1,0.5
	C-474,757.4-475.7,764.3-483.7,764.3z"/>
<rect x="-457.8" y="756.9" class="st1" width="31.4" height="2.3"/>
<rect x="-453.1" y="762.2" class="st1" width="1.9" height="9.9"/>
<rect x="-447.1" y="762.2" class="st1" width="1.9" height="9.9"/>
<rect x="-439" y="762.2" class="st1" width="1.9" height="9.9"/>
<rect x="-433.1" y="762.2" class="st1" width="1.9" height="9.9"/>
<polygon class="st1" points="-457,771 -427.3,771 -435.1,778.8 -442.3,771.6 -449.5,778.8 "/>
</svg>
