<?xml version="1.0" encoding="utf-8"?>
<!-- Generator: Adobe Illustrator 19.0.0, SVG Export Plug-In . SVG Version: 6.00 Build 0)  -->
<svg version="1.1" id="Layer_1" xmlns="http://www.w3.org/2000/svg" xmlns:xlink="http://www.w3.org/1999/xlink" x="0px" y="0px"
	 viewBox="-255 347 100 100" style="enable-background:new -255 347 100 100;" xml:space="preserve">
<style type="text/css">
	.st0{display:none;}
	.st1{fill:#006A70;}
</style>
<g id="Layer_1_1_" class="st0">
	
		<image style="display:inline;overflow:visible;enable-background:new    ;" width="286" height="302" id="XMLID_1_" xlink:href="../../../../Downloads/Screenshot 2023-01-07 153335.jpg"  transform="matrix(1.7721 0 0 1.7721 -499.1669 735.9181)">
	</image>
</g>
<path class="st1" d="M-180.2,376.6l11.6,11.6l-5,5l-12-12v-4.6H-180.2z M-155,354.6v84.8c0,4.2-3.4,7.6-7.6,7.6h-84.8
	c-4.2,0-7.6-3.4-7.6-7.6v-84.8c0-4.2,3.4-7.6,7.6-7.6h84.8C-158.4,347-155,350.4-155,354.6z M-174.4,375.6l1.5,1.5
	c1.2-1.2,2-1.5,2.5-1.6c0.5-0.1,0.8,0,1.1,0.3c0.4,0.4,0.2,1.1,0.1,1.4l-2.5,2.7l1.6,1.5l2.7-2.9l0.1-0.1c0.5-0.9,0.9-2.7-0.4-4
	c-0.8-0.8-1.9-1.2-3.1-0.9C-171.9,373.6-173.1,374.3-174.4,375.6z M-187.8,368.5l1.9-0.9c-0.7-1.6-0.7-2.2-0.6-2.5
	c0.1-0.2,0.2-0.4,0.8-0.6c0.6-0.2,1,0.2,1.2,0.4l2.4,8.2h2.2l-2.7-9.1l-0.1-0.1c-0.5-0.8-1.9-2.1-3.8-1.4c-1,0.4-1.7,1-2,1.8
	C-188.8,365.4-188.7,366.7-187.8,368.5z M-197.8,370.1c-0.1,1.5,0.9,3.3,3,5.3l1.5-1.5c-1.5-1.5-2.4-2.9-2.3-3.7
	c0-0.2,0.1-0.4,0.3-0.6c0.6-0.5,1.1-0.2,1.4,0l5.1,4.8l0.2-1.3l1.3-0.1l-5.1-4.9c-0.7-0.7-2.5-1.5-4.2,0
	C-197.4,368.5-197.8,369.3-197.8,370.1z M-191.2,388.4c0.2-0.5,0.4-0.8,0.6-0.9c0.1-0.1,0.3,0,0.3,0l0.1,0.1l7,1.2l-2.6-2.6
	l-3.8-0.7c-0.3-0.1-1.1-0.3-1.9,0c-0.8,0.3-1.4,1-1.8,2.1c-0.3,0.9-0.3,1.8,0.1,2.5c0.7,1.4,2.5,1.8,4.6,2.3l0.3-1l0.2-1
	c-1.4-0.3-2.9-0.7-3.2-1.2C-191.3,388.9-191.3,388.6-191.2,388.4z M-200.3,382.9c0.6,1,1.9,1.6,4.2,2.1l0.4-2.1
	c-1.9-0.4-2.6-0.8-2.8-1.1c-0.1-0.2-0.2-0.4,0-1.2c0.1-0.3,0.2-0.4,0.2-0.4c0.2-0.1,0.6-0.1,0.8-0.1l8.3,1.6v-2.1l-7.8-1.6
	c-0.3-0.1-1.4-0.3-2.4,0.3c-0.4,0.3-1,0.8-1.2,1.8C-200.8,380.9-200.9,381.9-200.3,382.9z M-241.6,362.2h-2.8v20.5h2.8V362.2z
	 M-239,372.2c0,5.7,4.8,9.2,9.3,9.2c4.4,0,7.2-2.9,7.4-3l-1.5-1.5c0,0-2.4,2.4-5.8,2.4c-3.5,0-7.2-2.6-7.2-7c0-4.5,4.6-6.5,6.4-6.5
	c1.7,0,4.4,1,4.4,3.5c0,3.1-1.2,4.7-3.6,4.7c-0.6,0-1.3-0.1-1.7-0.5c-0.4-0.4-0.4-1-0.3-1.4c0-0.1,0-0.1,0-0.2c0-0.2,0-0.4,0.2-0.6
	c0.2-0.2,0.7-0.6,2.4-0.6v-2.1c-3.9,0-4.7,1.8-4.7,3.3c0,0,0,0.1,0,0.1c0,0.5-0.1,1.9,0.9,2.9c0.7,0.7,1.8,1.1,3.2,1.1
	c3.6,0,5.7-2.6,5.7-6.8c0-3.7-3.4-5.7-6.6-5.7C-233.5,363.6-239,366.5-239,372.2z M-219,410.3l-2.1-0.5c0,0.1-1.3,5.3-7.7,5.3
	c-6.2,0-7.4-5.1-7.5-5.3l-1,0.2l1-0.2l-2.1,0.4c0,0.1,1.6,7,9.6,7C-220.7,417.3-219,410.4-219,410.3z M-217.1,362.2h-2.8v20.5h2.8
	V362.2z M-172.3,424h-3.9v-8.9h-1.9v8.9h-4v-8.9h-1.9v8.9h-6.3v-8.9h-1.9v8.9h-4.1v-8.9h-1.9v8.9h-3.9l7.5,7.7l7.2-7.2l7.2,7.2
	L-172.3,424z M-171.4,409.9h-31.4v2.3h31.4V409.9z M-165.6,388.1l-13.7-13.7h-8.4v7.7l14.1,14.1L-165.6,388.1z M-196.2,425.1v-1
	h-1.9v1H-196.2z M-190.2,425.1v-1h-1.9v1H-190.2z M-182.1,425.1v-1h-1.9v1H-182.1z M-176.2,425.1v-1h-1.9v1H-176.2z"/>
</svg>
