<?xml version="1.0" encoding="utf-8"?>
<!-- Generator: Adobe Illustrator 19.0.0, SVG Export Plug-In . SVG Version: 6.00 Build 0)  -->
<svg version="1.2" baseProfile="tiny" id="Layer_1" xmlns="http://www.w3.org/2000/svg" xmlns:xlink="http://www.w3.org/1999/xlink"
	 x="0px" y="0px" viewBox="-255 347 100 100" xml:space="preserve">
<g id="Layer_1_1_" display="none">
	
		<image display="inline" width="173" height="149" id="XMLID_1_" xlink:href="Screenshot 2023-01-05 163132.jpg"  transform="matrix(3.2282 0 0 3.2282 -270 416)">
	</image>
</g>
<g id="Layer_2">
	<path id="XMLID_7_" fill="none" d="M-239,367.1"/>
	<polygon id="XMLID_8_" fill="#006A70" points="-239.2,366.9 -245.9,373.6 -252.3,367.1 -250.8,365.6 -245.8,370.5 -240.6,365.6 
		-239.5,366.6 	"/>
	<polygon id="XMLID_9_" fill="#006A70" points="-239.2,373.6 -245.9,380.2 -252.3,373.8 -250.8,372.2 -245.8,377.2 -240.6,372.2 
		-239.5,373.3 	"/>
	<polygon id="XMLID_18_" fill="#006A70" points="-157.7,404.6 -164.3,411.2 -170.8,404.8 -169.3,403.2 -164.3,408.2 -159,403.2 
		-158,404.3 	"/>
	<polygon id="XMLID_17_" fill="#006A70" points="-157.7,411.3 -164.3,417.9 -170.8,411.4 -169.3,409.9 -164.3,414.9 -159,409.9 
		-158,411 	"/>
	<polygon id="XMLID_12_" fill="#006A70" points="-157.7,373.4 -164.9,366.2 -164.9,372.1 -174.2,372.1 -174.2,374.5 -164.9,374.5 
		-164.9,380.6 	"/>
	<polygon id="XMLID_10_" fill="#006A70" points="-189.4,374.2 -208.3,374.2 -213.6,379.9 -208.4,385.4 -189.4,385.4 	"/>
	<polygon id="XMLID_3_" fill="#006A70" points="-207.2,372.6 -204.1,372.6 -210.8,365.7 -212.7,367.1 	"/>
	<polygon id="XMLID_2_" fill="#006A70" points="-218.5,369.7 -211,374.2 -212.3,375.9 -219.5,371.5 	"/>
	<polygon id="XMLID_11_" fill="#006A70" points="-215.5,378.5 -216.2,379.3 -215.5,380.4 -224.4,380.4 -224.4,378.5 	"/>
	<polygon id="XMLID_6_" fill="#006A70" points="-219.5,387.7 -218.4,389.6 -211.2,385.4 -212.7,383.7 	"/>
	<polygon id="XMLID_13_" fill="#006A70" points="-200.3,387.1 -197.7,387.1 -202.4,392.2 -204,391.3 	"/>
	<path id="XMLID_21_" fill="#006A70" d="M-235.9,409.3h-9.1v-5.9l-7.2,7.2l7.2,7.2v-6.1h9.1V409.3z M-245.6,416.3l-5.7-5.7l5.7-5.7
		V416.3z"/>
	<path id="XMLID_28_" fill="#006A70" d="M-185.7,415.8v-1.5h-11.7l-2.1-2.1l8.9-5.1l-0.8-1.3l-9.2,5.2l-1.2-1.2h-9.7l5.5-5.4
		l-1.1-1.1l-6.6,6.5h-6.7v10.7h13.8l7.4,7.7l1.1-1.1l-6.4-6.6h3.3l1.1-1.3l8.6,5.5l0.8-1.3l-8.4-5.4l1.8-2.2H-185.7z M-201.9,419
		h-17v-7.7h16.5l3.7,3.8L-201.9,419z"/>
</g>
</svg>
