<?xml version="1.0" encoding="utf-8"?>
<!-- Generator: Adobe Illustrator 19.0.0, SVG Export Plug-In . SVG Version: 6.00 Build 0)  -->
<svg version="1.2" baseProfile="tiny" id="Layer_1" xmlns="http://www.w3.org/2000/svg" xmlns:xlink="http://www.w3.org/1999/xlink"
	 x="0px" y="0px" viewBox="-255 347 100 100" xml:space="preserve">
<g id="Layer_1_1_" display="none">
	
		<image display="inline" width="173" height="149" id="XMLID_1_" xlink:href="Screenshot 2023-01-05 163132.jpg"  transform="matrix(3.2282 0 0 3.2282 -270 416)">
	</image>
</g>
<path fill="#006A70" d="M-248,409.6l5.3-5.3v10.6L-248,409.6z M-217.9,410.3v7.2h15.8l3-3.6l-3.4-3.5H-217.9z M-155,354.3v85.3
	c0,4.1-3.3,7.3-7.3,7.3h-85.3c-4.1,0-7.3-3.3-7.3-7.3v-85.3c0-4.1,3.3-7.3,7.3-7.3h85.3C-158.3,347-155,350.3-155,354.3z
	 M-190.5,386.2v-10.4h-17.6l-4.9,5.3l4.8,5.1H-190.5z M-200.6,387.8l-3.4,3.9l1.5,0.8l4.4-4.7H-200.6z M-212.2,384.6l-6.3,3.7l1,1.8
	l6.7-3.9L-212.2,384.6z M-212.2,369.2l5.1,5.1h2.9l-6.2-6.4L-212.2,369.2z M-218.5,373.3l6.7,4.1l1.2-1.6l-7-4.2L-218.5,373.3z
	 M-249,369.2l6,6l6.2-6.2l-0.3-0.3l-1-0.9l-4.8,4.6l-4.6-4.6L-249,369.2z M-249,375.4l6,6l6.2-6.1l-0.3-0.3l-1-1l-4.8,4.6l-4.6-4.6
	L-249,375.4z M-233.7,408.4h-8.5v-5.5l-6.7,6.7l6.7,6.7v-5.7h8.5V408.4z M-223,381.6h8.3l-0.7-1l0.7-0.7h-8.3V381.6z M-187.1,413.1
	h-10.9l-2-2l8.3-4.7l-0.7-1.2l-8.6,4.8l-1.1-1.1h-9l5.1-5l-1-1l-6.1,6h-6.2v9.9h12.8l6.9,7.2l1-1l-6-6.1h3.1l1-1.2l8,5.1l0.7-1.2
	l-7.8-5l1.7-2h10.8V413.1z M-161,410.3l-0.3-0.3l-0.9-1l-4.9,4.6l-4.6-4.6l-1.4,1.4l6,6L-161,410.3z M-161,404.1l-0.3-0.3l-0.9-1
	l-4.9,4.6l-4.6-4.6l-1.4,1.5l6,6L-161,404.1z M-161,375.1l-6.7-6.7v5.5h-8.6v2.2h8.6v5.7L-161,375.1z"/>
</svg>
