<?xml version="1.0" encoding="utf-8"?>
<!-- Generator: Adobe Illustrator 19.0.0, SVG Export Plug-In . SVG Version: 6.00 Build 0)  -->
<svg version="1.1" id="Layer_1" xmlns="http://www.w3.org/2000/svg" xmlns:xlink="http://www.w3.org/1999/xlink" x="0px" y="0px"
	 viewBox="-255 347 100 100" style="enable-background:new -255 347 100 100;" xml:space="preserve">
<style type="text/css">
	.st0{display:none;}
	.st1{fill:#006A70;}
</style>
<g id="Layer_1_1_" class="st0">
</g>
<path class="st1" d="M-198.5,397h7.6v12.6h-7.9v-12.3L-198.5,397z M-189.7,371.4c-3,0-3.7,2.2-3.9,3.2h8
	C-185.8,373.6-186.7,371.4-189.7,371.4z M-155,356.3v81.5c0,5.1-4.1,9.3-9.3,9.3h-81.5c-5.1,0-9.3-4.1-9.3-9.3v-81.5
	c0-5.1,4.1-9.3,9.3-9.3h81.5C-159.1,347-155,351.1-155,356.3z M-198.6,375.6h17.8v-0.9h-3.4c-0.3-1.8-1.8-4.6-5.5-4.6
	c-3.7,0-5,2.8-5.3,4.6h-3.6V375.6z M-198.6,379.1h17.8v-0.9h-17.8V379.1z M-226.5,419.2l4.1-2.4l-0.8-1.5l-3.9,2.3V413h-1.7v4.8
	l-4.2-2.6l-0.8,1.5l4.1,2.5l-4.1,2.4l0.8,1.5l4.2-2.5v4.8h1.7v-4.6l3.8,2.3l0.9-1.5L-226.5,419.2z M-221.1,375.6l-7-6.9l-7,7.1V400
	h14V375.6z M-174.9,400.4l-1.6-1.7l-5.9,5.3v-9.3h-7.5h-1.1h-8.4l-6.8-6.1l-1.6,1.7l6.6,6v0.8v12.6v1.2v1.2h10.2h1.1h7.5v-4.8
	L-174.9,400.4z"/>
</svg>
