<?xml version="1.0" encoding="utf-8"?>
<!-- Generator: Adobe Illustrator 19.0.0, SVG Export Plug-In . SVG Version: 6.00 Build 0)  -->
<svg version="1.1" id="Layer_1" xmlns="http://www.w3.org/2000/svg" xmlns:xlink="http://www.w3.org/1999/xlink" x="0px" y="0px"
	 viewBox="-255 347 100 100" style="enable-background:new -255 347 100 100;" xml:space="preserve">
<style type="text/css">
	.st0{display:none;}
	.st1{fill:#006A70;}
</style>
<g id="Layer_1_1_" class="st0">
</g>
<polygon class="st1" points="-235.1,400 -221.1,400 -221.1,375.6 -228.1,368.7 -235.1,375.8 "/>
<rect x="-198.6" y="378.1" class="st1" width="17.8" height="0.9"/>
<path class="st1" d="M-184.2,374.7c-0.3-1.8-1.8-4.6-5.5-4.6c-3.7,0-5,2.8-5.3,4.6h-3.6v0.9h17.8v-0.9H-184.2z M-189.7,371.4
	c3,0,3.9,2.2,4.1,3.2h-8C-193.4,373.6-192.7,371.4-189.7,371.4z"/>
<polygon class="st1" points="-222.4,416.8 -223.3,415.3 -227.1,417.6 -227.1,413 -228.8,413 -228.8,417.8 -233,415.2 -233.8,416.7 
	-229.7,419.2 -233.8,421.6 -233,423 -228.8,420.5 -228.8,425.3 -227.1,425.3 -227.1,420.7 -223.4,423 -222.4,421.6 -226.5,419.2 "/>
<path class="st1" d="M-174.9,400.4l-1.6-1.7l-5.9,5.3v-9.3h-7.5h-1.1h-8.4l-6.8-6.1l-1.6,1.7l6.6,6v0.8v12.6v1.2v1.2h10.2h1.1h7.5
	v-4.8L-174.9,400.4z M-198.8,409.6v-12.3l0.3-0.3h7.6v12.6H-198.8z"/>
</svg>
